<?xml version="1.0" encoding="utf-8"?>
<!-- Generator: Adobe Illustrator 16.0.4, SVG Export Plug-In . SVG Version: 6.00 Build 0)  -->
<!DOCTYPE svg PUBLIC "-//W3C//DTD SVG 1.1//EN" "http://www.w3.org/Graphics/SVG/1.1/DTD/svg11.dtd">
<svg version="1.1" id="Layer_1" xmlns="http://www.w3.org/2000/svg" xmlns:xlink="http://www.w3.org/1999/xlink" x="0px" y="0px"
	 width="426.903px" height="96.788px" viewBox="0 0 426.903 96.788" enable-background="new 0 0 426.903 96.788"
	 xml:space="preserve">
<g>
	<path fill="#1DA8E0" d="M68.735,41.282c-2.628-0.836-7.153,1.883-8.642,4.141c-1.84,2.767-0.238,7.003,3.118,7.831
		c2.824,0.708,8.062-2.097,9.123-4.858C73.55,45.212,71.345,41.921,68.735,41.282"/>
	<path fill="#1DA8E0" d="M43.146,47.237c-6.04-0.924-9.936,11.593-2.002,10.392c2.92-0.449,5.874-2.22,6.785-5.091
		c1.165-3.706-2.695-7.855-6.118-4.419"/>
	<path fill="#1DA8E0" d="M90.403,51.739c-0.16-0.675-0.891-0.438-1.031-0.438c-1.324,1.167-2.034,2.589-3.017,3.928
		c-1.267,1.729-9.688,11.208-13.181,13.692c-6.977,4.93-16.825,7.349-25.563,6.192c-2.304-0.292-4.667-1.348-6.9-1.946
		c-1.409-0.366-4.142-1.774-3.754,0.453c0.188,1.161,2.312,3.289,3.262,3.97c1.796,1.302,5.653,1.874,7.776,2.156
		c5.421,0.704,16.772-1.316,26.323-7.509c4.403-2.863,8.128-6.433,11.665-10.389c2.978-3.33,4.186-8.17,4.186-8.17
		S90.564,52.415,90.403,51.739z"/>
	<path fill="#1DA8E0" d="M110.269,35.376c-11.548-4.09-23.706-5.864-35.797-6.468c-4.049-0.21-6.874-0.35-10.97-0.419
		c-2.384-0.038-4.952,0.076-6.982-0.503c-1.441-0.42-4.529-1.554-2.338-2.832l-0.033,0.037c0.501-0.317,1.212-0.917,1.571-1.123
		c1.615-0.883,2.5-1.456,4.199-2.29c3.473-1.683,6.479-3.222,10.151-4.406c2.267-0.743,9.54-2.618,9.713-5.476
		c0.324-4.032-7.361-3.05-9.435-2.373c-4.089,1.316-7.675,3.362-11.095,5.902c-2.025,1.497-6.33,6.412-9.056,6.194
		c-3.677-0.315,1.235-7.074,2.37-8.665c2.37-3.323,6.25-5.066,8.844-8.124c4.01-4.708-2.197-6.154-5.691-3.542
		c-3.94,2.969-8.009,7.522-9.448,12.378c-0.564,1.933-1.667,9.126-3.787,9.898c-1.416,0.507-3.079-1.276-4.212-2.01
		c-1.799-1.137-6.115-4.942-9.544-6.295c-1.85-0.719-3.86-1.276-5.427-1.417c-1.551-0.14-4.388-0.399-5.339,1.35
		c-1.231,2.283,1.699,3.278,3.298,3.733c4.41,1.218,8.989,1,13.008,3.624c1.218,0.815,3.789,2.326,3.086,4.138
		c-0.639,1.687-4.25,2.118-5.698,2.433c-5.058,1.09-9.949,1.978-14.854,3.814c-2.936,1.099-9.334,4.078-9.273,7.896
		c0.069,4.662,10.537-2.409,12.632-3.32c1.739-0.745,12.973-5.415,12.99-1.098c0.025,2.221-7.754,7.175-9.418,8.307
		C18.431,48.301-4.352,62.028,0.735,77.27c1.134,3.423,3.58,5.552,5.908,8.023c4.53,4.812,17.593,10.121,44.888,11.408
		c13.886,0.685,32.618-2.778,41.46-6.169c6.458-2.479,12.532-6.575,18.174-10.611c8.583-6.186,14.165-13.447,15.441-23.848
		C127.743,46.803,118.669,38.321,110.269,35.376 M123.262,59.606c-0.988,4.713-5.075,7.972-8.345,11.262
		c-3.814,3.812-26.95,21.863-55.449,22.764c-33.476,1.017-47.099-8.445-48.36-9.507c-2.584-2.189-4.492-3.575-6.445-6.403
		C-0.046,70.94,5.045,63.55,10.436,58.77c6.363-5.634,14.15-10.763,21.437-15.223c3.395-2.085,6.507-4.585,9.894-6.748
		c2.667-1.705,4.47-3.719,9.765-4.806c5.277-1.071,15.072,0.238,18.107,0.216c5.659-0.006,11.539,0.453,17.116,1.233
		c5.181,0.738,10.278,1.412,15.313,2.692c11.513,2.929,16.909,9.324,18.872,12.161C123.063,51.405,124,55.892,123.262,59.606"/>
	<path fill="#E8138A" d="M105.875,50.133c-0.06,2.554-2.141,4.6-4.731,4.557c-2.554-0.06-4.597-2.178-4.538-4.732
		c0.06-2.553,2.176-4.598,4.73-4.556C103.891,45.461,105.934,47.579,105.875,50.133"/>
	<path fill="#E8138A" d="M28.295,70.514c-0.042,2.57-2.16,4.6-4.714,4.556c-2.57-0.04-4.596-2.158-4.554-4.728
		c0.04-2.559,2.158-4.601,4.711-4.541C26.31,65.844,28.337,67.961,28.295,70.514"/>
	<path fill="#1DA8E0" d="M183.644,48.19c-1.925-0.078-1.594,1.133-6.916,1.707c-6.597,0.737-10.603-1.035-12.581-2.634
		c-3.635-2.926-5.19-6.794-5.19-10.961c0-5.526,1.083-8.444,2.448-9.963c1.462-1.629,4.048-5.118,11.087-5.088
		c7.06,0.076,6.732,1.419,9.79,2.349c0.238,0.084,1.036-0.074,1.131-0.667c0.231-1.493-0.747-3.57-4.092-5.294
		c-3.06-1.597-5.992-1.384-7.877-1.384c-4.982,0-9.175,1.949-12.577,5.748c-3.331,3.674-4.951,8.019-4.935,13.082
		c0.04,3.034,0.647,6.036,1.82,8.959c1.669,4.137,4.764,7.707,9.764,9.591c3.825,1.438,8.151,1.801,12.01,1.131
		c1.428-0.268,4.141-0.823,5.426-1.85C186.397,50.248,185.208,48.264,183.644,48.19 M193.695,34.598
		c0.082-1.276,0.269-3.101,0.56-5.616c0.315-2.469,0.474-4.248,0.527-5.286c0.216-3.495-0.39-5.284-1.794-5.373
		c-2.033-0.183-3.294,2.748-3.741,8.843c-0.212,2.836-0.132,7.453,0.198,13.793c0.475,8.846,1.542,13.354,3.156,13.458
		c0.365,0.013,0.849-0.108,1.496-0.459c0.767-0.395,1.154-0.871,1.194-1.43c0.052-0.465-0.468-5.384-1.561-14.813
		C193.641,36.801,193.637,35.766,193.695,34.598 M211.786,46.2c-0.723,2.441-2.212,3.665-4.395,3.665
		c-1.076,0-1.975-0.552-2.722-1.652c-0.576-0.845-0.864-1.605-0.864-2.277c0-1.149,0.812-2.55,2.449-4.156
		c1.62-1.606,2.938-2.432,3.935-2.432c0.269,0,0.707,0.076,1.36,0.182c0.653,0.104,1.131,0.179,1.458,0.179
		C212.623,41.864,212.209,44.027,211.786,46.2 M217.63,45.455c-0.054-0.19-0.097-0.453-0.097-0.741c0-0.208,0.048-0.65,0.144-1.235
		c0.096-0.581,0.145-1.049,0.145-1.401c0-1.611-0.991-2.817-2.972-3.522c0.311-0.527,0.457-0.996,0.457-1.411
		c0-0.817-0.41-1.469-1.177-1.967c-0.613-0.446-1.269-0.647-1.94-0.647c-2.808,0-5.56,1.216-8.287,3.595
		c-2.866,2.523-4.288,5.238-4.288,8.099c0,1.582,0.613,3.264,1.845,5.052c1.42,2.015,3.057,3.045,4.863,3.045
		c2.196,0,3.522-0.189,4.6-0.654c0.711-0.385,1.715-0.966,2.406-1.909c0.576-0.828,0.387-0.84,1.043-0.742
		c0.577,1.132,1.461,2.084,2.634,2.849c1.175,0.816,2.414,1.199,3.761,1.199c0.711,0,1.291-0.267,1.764-0.754
		c0.471-0.487,0.978-1.199,0.706-1.883c-0.476-1.313-0.8-1.132-2.372-2.729C219.13,47.989,218.053,46.576,217.63,45.455
		 M233.835,18.579c-0.19,0-0.393,0.017-0.623,0.096c-1.788,0.32-2.683,0.973-2.683,1.915c0-0.094,0.039,0.346,0.097,1.222
		c0.054,0.735,0.319,1.413,0.718,2.085c0.654,1.006,1.549,1.414,2.682,1.318c0.696-0.015,1.127-0.097,1.32-0.192
		c0.502-0.224,0.702-0.792,0.645-1.7c-0.038-0.863-0.079-1.726-0.097-2.636C235.584,19.265,234.914,18.579,233.835,18.579
		 M232.229,47.327c0-0.657,0.098-1.399,0.291-2.229l0.645-5.223c-0.08-1.006-0.799-2.919-2.252-3.354
		c-1.452-0.387-1.941,0.647-2.311,1.314c-0.341,0.663-1.036,3.582-1.043,6.495c-0.008,2.917,0.228,6.202,0.576,7.259
		c0.985,1.952,2.403,3.086,3.568,3.212c1.142,0.175,1.099,0.09,1.476-0.102c0.597-0.288,1.158-1.417,1.158-1.815
		c0-0.846-0.361-1.763-1.063-2.692C232.57,49.301,232.229,48.299,232.229,47.327 M253.432,33.214
		c-2.449-1.21-5.833,0.069-7.082,1.021c-1.269,0.949-2.818,3.106-4.647,6.429c-0.056,0-0.235-0.112-0.515-0.383
		c-0.256-0.267-0.538-0.383-0.85-0.383c-0.632,0-1.055,0.208-1.27,0.672c-0.096,0.286-0.145,0.927-0.145,1.868
		c0,1.311,0.278,3.12,0.84,5.485c0.559,2.363-0.005,4.027,0.897,4.799c0.467,0.388,0.572,0.724,2.169,0.183
		c1.597-0.491,1.826-2.091,2.156-2.923c0.014-0.078,0.197-1.428,0.528-4.145c0.244-2.475,0.798-4.421,1.604-5.749
		c1.133-1.964,2.4-3.322,4.747-3.322c0.538,0,3.354,0.571,4.006,0.611c0.811,0.14,1.837,0.083,1.937-0.874
		C257.95,35.177,255.737,34.342,253.432,33.214 M267.808,37.456c1.27-1.343,2.349-2.061,3.236-2.061
		c0.245,0,0.485,0.074,0.717,0.168c0.232,0.097,0.375,0.168,0.455,0.168v2.373c0.016,0.559-0.702,1.229-2.204,2.059
		c-1.271,0.687-2.062,1.055-2.346,1.055c-0.577,0-1.191-0.28-1.846-0.837C266.066,39.626,266.755,38.671,267.808,37.456
		 M277.257,50.942c-0.605-0.398-1.209-0.599-1.784-0.599c-0.189,0-0.422,0.02-0.693,0.11c-0.248,0.084-0.479,0.104-0.672,0.104
		c-1.827,0-3.474-0.318-4.936-1.054c-1.843-0.927-3.064-2.259-3.64-4.05c1.693-0.574,2.737-0.863,3.163-0.863
		c0.149,0,0.29,0.039,0.419,0.207c0.102,0.166,0.321,0.203,0.611,0.203c1.788,0,3.44-0.967,4.956-2.946
		c1.407-1.804,2.109-3.556,2.109-5.15c0-1.614-0.552-2.941-1.606-3.978c-1.077-1.04-2.474-1.534-4.141-1.534
		c-2.828,0-5.312,1.542-7.426,4.718c-1.749,2.668-2.613,5.201-2.613,7.546c0,3.514,1.334,6.236,4.049,8.122
		c2.268,1.579,5.054,2.347,8.361,2.347c0.461,0,1.301-0.183,2.49-0.551c1.502-0.415,2.25-0.879,2.25-1.341
		C278.156,51.791,277.842,51.388,277.257,50.942 M330.931,28.33c0,0,0.279-8.144,0.196-9.813c-0.082-1.623-0.771-2.263-2.354-2.262
		c-1.53,0.001-1.693,0.559-1.891,1.034c-0.197,0.474-0.451,1.109-0.359,1.507c0.098,0.446,0.259,1.302,0.259,1.671
		c0.112,0.496-0.353,12.818-0.353,14.544l-2.2-0.504c-0.949,0-2.159-0.164-2.702-0.164l-5.089,0.093
		c-0.479,0.178-1.543,0.265-3.236,0.265h-5.341l0.549-8.77l0.171-0.741l0.119-5.917c-0.192-0.575-0.479-0.966-0.861-1.221
		c-0.384-0.207-0.855-0.304-1.415-0.288c-1.597,0.081-2.418,0.753-2.418,2.061v5.006l-0.193,6.326
		c-0.015,1.31-0.215,2.603-0.598,3.833l-3.091,0.765c-1.422,0.655-2.621,1.965-3.497,3.884c0,0,0.03,1.13,0.668,1.767
		c0.637,0.638,1.901,0.291,1.901,0.291l1.498-0.673c0.841-0.19,1.882-0.284,3.118-0.284l-0.312,7.161c0,0-0.179,6.396,0.312,7.354
		c1.1,2.061,3.39,0.654,3.736-0.19c0.297-0.847,0.312-5.462,0.312-5.462c0.166-1.024,0.262-1.795,0.277-2.373
		c0.167-1.309,0.196-2.332,0.179-3.018l-0.168-3.473c2.637,0.494,4.715,0.309,6.12,0.309c2.36-0.305,4.06-0.101,5.257-0.214
		c1.712-0.252,4.065-0.358,7.066-0.358c-0.476,1.516-0.732,3.114-0.668,4.79c0.017,1.596,0.192,2.849,0.478,3.855
		c0.558,1.823,1.319,2.757,2.276,2.757c1.198-0.496,1.883-1.15,2.158-1.917c0.299-0.94,0.462-2.882,0.382-5.725L330.931,28.33z
		 M353.544,47.062c-1.483,0.927-3.026,1.39-4.718,1.39c-1.663,0-3.171-0.375-4.529-1.125c-1.787-1.023-2.705-2.445-2.705-4.312
		c0-0.576,0.479-1.813,1.485-3.764c0.189,0.257,0.502,0.359,1.029,0.359c0.878,0,1.912-0.656,3.054-1.975
		c1.188-1.317,1.848-1.975,1.976-1.975c1.774,0,3.379,0.566,4.863,1.701c1.55,1.31,2.373,2.92,2.373,4.885
		C356.373,44.306,355.427,45.912,353.544,47.062 M349.136,30.749c-3.228,0-6.145,1.351-8.766,4.143
		c-2.458,2.556-3.688,5.208-3.688,8.002c0,2.764,1.049,5.287,3.197,7.473c2.1,2.236,4.618,3.308,7.462,3.308
		c3.083,0,5.932-0.957,8.646-2.922c3.114-2.269,4.648-5.185,4.648-8.696c0-2.732-1.079-5.27-3.328-7.62
		C354.941,31.979,352.219,30.749,349.136,30.749 M384.368,34.631c-0.291,0-0.761,0.079-1.051,0.262
		c-0.477,0.286-0.857,0.75-0.952,2.013c-0.095,0.732,0.218,3.066-0.263,5.363c-0.482,2.346-1.52,3.65-1.871,4.05
		c-0.974,1.118-2.82,1.598-5.389,1.487c-0.959-0.062-1.897-0.673-2.816-1.968c-0.869-1.247-1.155-2.168-1.155-3.205
		c0-0.303,0.105-1.529,0.663-3.191c0.562-1.612,0.85-2.554,0.864-2.825c0.081-0.767-0.088-1.325-0.454-1.628
		c-0.321-0.257-0.682-0.466-0.983-0.672c-0.238-0.078-0.431-0.094-0.623-0.094c-1.169,0-2.178,1.037-2.946,3.112
		c-0.672,1.806-1.03,3.778-1.03,5.87c0,2.828,0.742,5.254,2.182,7.235c1.771,2.348,4.157,3.395,7.257,3.138
		c3.499-0.223,6.477-1.621,8.839-4.145c2.174-2.283,3.235-4.823,3.235-7.569c0-1.886-0.104-3.283-0.31-4.145
		C386.987,35.738,386.171,34.631,384.368,34.631 M393.144,52.45c0.006,0.006,0.06,0.006,0.068,0.052c0-0.046,0-0.046,0.002-0.052
		H393.144z M400.833,42.439c-2.411-2.717-3.632-4.703-3.666-6.014c0.271-0.575,0.784-0.863,1.631-0.863
		c0.268,0,0.657,0.016,1.208,0.097c0.55,0.079,0.931,0.094,1.14,0.094c0.75,0,1.203-0.293,1.315-0.933
		c0.16-0.687-0.087-1.428-0.646-2.179c-0.59-0.863-1.444-1.312-2.563-1.247c-1.789,0.017-3.298,0.705-4.526,2.109
		c-1.136,1.293-1.693,2.618-1.676,4.024c0.078,1.5,1.296,3.617,3.652,6.447c2.356,2.822,3.509,4.483,3.509,4.882
		c0,0.178-0.023,0.28-0.12,0.361c-2.365,2.363-4.423,3.489-6.131,3.379c-0.372-0.062-0.635-0.079-0.747-0.095
		c-0.481,0.13-1.008,0.488-1.481,0.979c-0.478,0.543-0.663,0.943-0.504,1.294c0.208,0.56,0.671,0.854,1.341,0.935
		c0.544,0.032,1.039,0.111,1.582,0.19c0.21,0.032,0.486,0.097,0.79,0.097c1.789,0,3.842-0.822,6.109-2.42
		c2.524-1.71,3.765-3.489,3.765-5.292c0-0.273-0.019-0.541-0.1-0.767C404.603,46.958,403.292,45.265,400.833,42.439"/>
	<path fill="#1DA8E0" d="M418.471,52.698c2.836,0.3,6.77,0.969,7.648,0.216c0.926-0.751,1.328-2.557-0.501-2.83
		c-1.57-0.205-1.287-0.304-3.936-0.279c-0.735,0.011-2.337-0.096-3.38-0.308c-1.041-0.261-1.991-0.551-2.85-0.917
		c-2.046-0.836-2.903-1.912-2.624-3.311c0.173-0.836,0.448-1.396,0.824-1.677c0.376-0.281,0.854-0.396,1.434-0.396
		c0.838,0.106,1.508,0.198,2.061,0.276c0.501,0.027,1.034,0.09,1.507,0.09c2,0,3.861-0.548,5.553-1.599
		c1.688-1.099,2.482-2.421,2.482-3.967c0-0.925-0.278-1.859-0.791-2.806c-0.732-1.138-1.565-1.978-2.503-2.469
		c-0.888-0.54-1.981-0.808-3.137-0.808c-2.817,0-5.569,1.377-8.299,4.04c-2.729,2.709-4.116,5.448-4.116,8.267
		c0,1.05,0.194,2.003,0.64,2.85c0.394,0.849,1.056,1.663,1.982,2.349C412.55,51.028,415.25,52.139,418.471,52.698 M423.46,38.653
		c0,0.578-0.264,1.034-0.748,1.263c-0.483,0.28-1.135,0.444-1.955,0.444c-0.686,0-1.514-0.099-2.39-0.351
		c-0.926-0.203-1.582-0.412-1.967-0.672c0.487-0.857,1.155-1.677,1.996-2.363c1.013-0.858,1.881-1.31,2.698-1.31
		c0.774,0,1.36,0.452,1.813,1.31C423.279,37.641,423.46,38.2,423.46,38.653"/>
	<path fill="#231F20" d="M161.558,80.139c-1.746,0-3.157-0.554-4.283-1.618c-1.126-1.115-1.66-2.511-1.66-4.219
		c0-1.693,0.534-3.046,1.656-4.178c1.122-1.126,2.488-1.687,4.143-1.687c1.558,0,3.162,0.403,4.809,1.316l0.328,0.183v-1.573v-0.118
		l-0.135-0.076c-1.698-0.769-3.349-1.153-4.947-1.153c-2.024-0.049-3.78,0.68-5.242,2.082c-1.467,1.404-2.218,3.131-2.215,5.204
		c-0.003,2.066,0.717,3.833,2.167,5.188c1.426,1.398,3.248,2.075,5.376,2.075h0.034c1.66,0,3.316-0.411,4.971-1.32l0.129-0.03
		v-1.232v-0.376l-0.328,0.137C164.616,79.678,163.015,80.139,161.558,80.139"/>
	<polygon fill="#231F20" points="183.784,67.149 183.554,67.149 183.554,73.532 174.783,73.532 174.783,67.149 173.482,67.149 
		173.274,67.149 173.274,81.431 174.556,81.431 174.783,81.431 174.783,74.855 183.554,74.855 183.554,81.431 184.84,81.431 
		185.067,81.431 185.067,67.149 184.84,67.149 	"/>
	<polygon fill="#231F20" points="192.223,67.152 192.223,81.383 193.557,81.383 193.783,81.383 193.783,81.178 193.783,67.152 
		192.454,67.152 	"/>
	<polygon fill="#231F20" points="202.971,67.149 202.742,67.149 201.689,67.149 201.461,67.149 201.461,81.431 209.808,81.431 
		209.808,80.31 209.808,80.057 202.971,80.057 	"/>
	<g>
		<path fill="#231F20" d="M226.857,74.293c-0.004,1.775-0.568,3.125-1.704,4.219c-1.163,1.047-2.578,1.545-4.318,1.546h-3.648
			V68.475h3.592c1.801,0,3.255,0.553,4.386,1.656C226.292,71.189,226.853,72.584,226.857,74.293 M220.722,67.152h-5.044v0.251V81.38
			h5.236h0.01c2.36,0,4.239-0.665,5.559-1.996c1.313-1.329,1.977-3.036,1.975-5.091c0.002-2.079-0.664-3.787-1.989-5.109
			C225.12,67.807,223.184,67.152,220.722,67.152"/>
		<path fill="#231F20" d="M241.23,70.98c-0.001,0.784-0.281,1.356-0.846,1.809c-0.562,0.449-1.408,0.66-2.544,0.66h-2.077v-4.928
			h2.032c1.164,0,2.015,0.21,2.584,0.661C240.949,69.591,241.229,70.159,241.23,70.98 M240.46,74.372
			c1.556-0.72,2.38-1.866,2.374-3.399c0.003-1.184-0.425-2.132-1.267-2.8c-0.818-0.671-2.03-1.023-3.54-1.023h-3.771v0.254v13.979
			h1.303h0.204v-6.609h1.652c0.846,0,1.459,0.171,1.842,0.449c0.406,0.277,1.032,1.042,1.83,2.283l2.489,3.877h1.375h0.418
			l-3.378-5.104C241.407,75.342,240.896,74.743,240.46,74.372"/>
	</g>
	<polygon fill="#231F20" points="252.351,74.933 258.668,74.933 258.668,73.812 258.668,73.561 252.351,73.561 252.351,68.473 
		258.846,68.473 258.846,67.404 258.846,67.152 258.621,67.152 250.841,67.152 250.841,81.431 258.999,81.431 258.999,80.31 
		258.999,80.057 252.351,80.057 	"/>
	<polygon fill="#231F20" points="277.28,67.152 277.075,67.152 277.075,78.834 266.913,67.152 265.918,67.152 265.688,67.152 
		265.688,81.383 266.991,81.383 267.195,81.383 267.195,69.699 277.367,81.383 278.357,81.383 278.585,81.383 278.585,67.152 
		278.357,67.152 	"/>
	<g>
		<path fill="#231F20" d="M286.031,67.13h-0.232v2.244v0.206h0.459c-0.035,0.569-0.176,1.026-0.411,1.327l-0.042,0.847v0.452
			l0.366-0.27c0.953-0.73,1.457-1.718,1.455-3.013v-1.589V67.13h-0.229H286.031z"/>
		<path fill="#231F20" d="M300.509,74.291c-0.483-0.276-1.245-0.58-2.29-1.015c-1.034-0.384-1.695-0.773-1.972-1.147
			c-0.294-0.384-0.462-0.833-0.462-1.311c0-0.674,0.264-1.234,0.76-1.701c0.539-0.472,1.137-0.678,1.958-0.681
			c0.774,0,1.797,0.308,2.954,1.029l0.354,0.192v-1.582v-0.11l-0.104-0.081c-1.111-0.577-2.229-0.869-3.303-0.869
			c-1.188-0.049-2.158,0.379-2.994,1.131c-0.831,0.699-1.23,1.638-1.23,2.741c0,0.755,0.176,1.411,0.496,1.901
			c0.357,0.48,0.755,0.859,1.282,1.133c0.475,0.272,1.232,0.576,2.29,1.015c1.048,0.391,1.758,0.842,2.051,1.235
			c0.302,0.453,0.476,0.927,0.476,1.436c0,0.733-0.268,1.306-0.769,1.791c-0.544,0.525-1.187,0.74-1.946,0.74
			c-0.88,0.003-2.006-0.463-3.325-1.421l-0.366-0.27v1.694v0.106l0.098,0.082c1.232,0.833,2.457,1.234,3.672,1.234
			c1.153,0,2.175-0.384,3.009-1.145c0.786-0.758,1.231-1.715,1.231-2.837c0-0.837-0.182-1.513-0.556-2.071
			C301.459,74.967,301.051,74.575,300.509,74.291"/>
	</g>
	<polygon fill="#231F20" points="330.458,67.149 330.254,67.149 330.254,73.533 321.432,73.533 321.435,67.149 320.182,67.149 
		319.93,67.149 319.93,81.379 321.231,81.379 321.435,81.379 321.435,74.854 330.254,74.854 330.254,81.379 331.516,81.379 
		331.767,81.379 331.767,67.149 331.516,67.149 	"/>
	<g>
		<path fill="#231F20" d="M346.18,80.139c-1.684,0-3.084-0.562-4.227-1.693c-1.142-1.136-1.708-2.479-1.708-4.154
			c0-1.677,0.566-3.021,1.708-4.156c1.143-1.133,2.543-1.698,4.227-1.698c1.631,0,3.026,0.565,4.165,1.698
			c1.134,1.132,1.695,2.479,1.698,4.156c-0.003,1.675-0.564,3.019-1.698,4.154C349.207,79.578,347.811,80.139,346.18,80.139
			 M346.113,67.015c-2.076,0-3.867,0.685-5.295,2.096c-1.477,1.411-2.175,3.181-2.173,5.181c-0.002,2.001,0.696,3.766,2.173,5.179
			c1.428,1.411,3.219,2.096,5.295,2.095h0.012c2.075,0,3.862-0.686,5.339-2.095c1.437-1.413,2.182-3.178,2.181-5.179
			c0.001-2-0.744-3.77-2.181-5.181C349.985,67.699,348.195,67.015,346.113,67.015"/>
		<path fill="#231F20" d="M366.189,74.296c-0.485-0.278-1.248-0.585-2.291-1.02c-1.036-0.384-1.693-0.775-1.977-1.147
			c-0.338-0.382-0.46-0.836-0.46-1.312c0-0.672,0.27-1.23,0.761-1.7c0.539-0.47,1.138-0.678,1.958-0.681
			c0.779,0,1.798,0.309,2.956,1.028l0.353,0.194v-1.583v-0.11l-0.104-0.078c-1.107-0.579-2.226-0.873-3.302-0.873
			c-1.188-0.001-2.157,0.378-2.991,1.13c-0.832,0.7-1.232,1.64-1.232,2.743c0,0.757,0.179,1.411,0.494,1.898
			c0.357,0.479,0.755,0.864,1.283,1.136c0.477,0.272,1.238,0.577,2.29,1.017c1.046,0.388,1.76,0.84,2.051,1.234
			c0.301,0.452,0.476,0.926,0.476,1.437c0,0.731-0.271,1.304-0.767,1.789c-0.545,0.527-1.188,0.744-1.946,0.744
			c-0.883,0-2.008-0.467-3.328-1.425l-0.365-0.268v1.693v0.109l0.097,0.079c1.234,0.832,2.46,1.232,3.675,1.232
			c1.15,0,2.173-0.383,3.005-1.143c0.79-0.758,1.235-1.716,1.235-2.839c0-0.836-0.185-1.512-0.556-2.07
			C367.136,74.967,366.728,74.575,366.189,74.296"/>
		<path fill="#231F20" d="M376.996,68.475h2.467c1.05,0,1.867,0.262,2.371,0.725c0.548,0.467,0.822,1.046,0.823,1.868
			c-0.001,0.847-0.276,1.434-0.834,1.892c-0.554,0.407-1.344,0.67-2.473,0.67h-2.354V68.475z M379.485,67.149h-3.998v0.255v13.975
			h1.256h0.253v-6.428h2.389c1.574,0,2.74-0.359,3.586-1.041c0.837-0.731,1.288-1.689,1.285-2.898
			c0.003-1.152-0.442-2.107-1.283-2.83C382.183,67.504,380.984,67.149,379.485,67.149"/>
	</g>
	<polygon fill="#231F20" points="390.952,67.152 390.952,81.383 392.285,81.383 392.485,81.383 392.485,81.179 392.485,67.152 
		391.156,67.152 	"/>
	<g>
		<path fill="#231F20" d="M406.583,80.139c-1.774,0-3.187-0.553-4.31-1.622c-1.124-1.112-1.685-2.509-1.685-4.215
			c0-1.695,0.561-3.046,1.682-4.178c1.122-1.125,2.46-1.685,4.142-1.688c1.585,0,3.188,0.404,4.809,1.317l0.352,0.181v-1.571v-0.119
			l-0.158-0.075c-1.7-0.769-3.324-1.153-4.922-1.153c-2.049-0.049-3.828,0.682-5.269,2.082c-1.488,1.404-2.238,3.131-2.238,5.204
			c0,2.066,0.744,3.833,2.167,5.188c1.475,1.398,3.275,2.075,5.428,2.075h0.011c1.632,0,3.314-0.408,4.993-1.32l0.105-0.03V78.98
			v-0.368l-0.302,0.13C409.616,79.679,408.013,80.139,406.583,80.139"/>
	</g>
	<polygon fill="#231F20" points="420.249,80.058 420.249,74.936 426.567,74.936 426.567,73.812 426.567,73.561 420.249,73.561 
		420.249,68.475 426.748,68.475 426.748,67.404 426.748,67.152 426.493,67.152 418.742,67.152 418.742,81.38 426.871,81.38 
		426.871,80.31 426.871,80.058 	"/>
</g>
</svg>
